<?xml version="1.0" encoding="UTF-8"?>
<!DOCTYPE svg PUBLIC "-//W3C//DTD SVG 1.1//EN" "http://www.w3.org/Graphics/SVG/1.1/DTD/svg11.dtd">
<!-- Creator: CorelDRAW X8 -->
<svg xmlns="http://www.w3.org/2000/svg" xml:space="preserve" width="499px" height="185px" version="1.1" style="shape-rendering:geometricPrecision; text-rendering:geometricPrecision; image-rendering:optimizeQuality; fill-rule:evenodd; clip-rule:evenodd"
viewBox="0 0 207 77"
 xmlns:xlink="http://www.w3.org/1999/xlink">
 <defs>
  <style type="text/css">
   <![CDATA[
    .str1 {stroke:#2B2A29;stroke-width:5.06984}
    .str3 {stroke:#454545;stroke-width:5.06984}
    .str0 {stroke:#454545;stroke-width:5.06984}
    .str2 {stroke:#DE6D6E;stroke-width:5.06984}
    .str4 {stroke:#454545;stroke-width:3.80238}
    .fil2 {fill:none}
    .fil1 {fill:#DE6D6E;fill-rule:nonzero}
    .fil0 {fill:#DE6D6E;fill-rule:nonzero}
   ]]>
  </style>
 </defs>
 <g id="Слой_x0020_1">
  <metadata id="CorelCorpID_0Corel-Layer"/>
  <path class="fil0" d="M43 43l0 -32 15 0c3,0 6,1 8,2 2,2 3,3 3,6 0,2 -1,3 -1,4 -1,1 -3,2 -4,3 2,0 4,1 5,2 1,2 2,3 2,5 0,3 -2,5 -4,7 -2,2 -5,3 -9,3l-15 0zm5 -19l9 0c2,0 4,0 5,-1 1,0 2,-2 2,-3 0,-2 -1,-3 -2,-4 -1,-1 -3,-1 -5,-1l-9 0 0 9zm0 15l10 0c2,0 4,-1 6,-2 1,-1 2,-2 2,-4 0,-2 -1,-3 -2,-4 -2,-1 -4,-1 -7,-1l-9 0 0 11z"/>
  <path class="fil0" d="M81 15l0 11 8 0c3,0 6,-1 7,-2 1,-1 2,-2 2,-4 0,-2 -1,-3 -2,-4 -1,-1 -3,-1 -7,-1l-8 0zm-5 -4l14 0c2,0 4,0 5,1 1,0 2,0 3,0 2,1 3,2 4,3 0,2 1,3 1,5 0,2 -1,3 -2,4 0,2 -2,2 -3,3 1,0 2,1 3,2 0,1 1,2 1,4l0 5c0,1 1,2 1,3 0,0 0,1 1,1l0 1 -6 0c0,-1 0,-2 -1,-5l0 0 0 -4c0,-2 -1,-3 -2,-4 0,0 -3,-1 -6,-1l-8 0 0 14 -5 0 0 -32z"/>
  <path class="fil1" d="M149 38c-1,2 -3,3 -5,4 -2,1 -4,2 -7,2 -5,0 -9,-2 -12,-5 -3,-3 -4,-7 -4,-12 0,-5 1,-9 4,-12 4,-3 8,-4 13,-4 4,0 8,0 10,2 3,2 4,5 5,8l-5 0c0,-2 -1,-4 -3,-5 -2,-1 -4,-2 -7,-2 -4,0 -7,1 -9,4 -2,2 -3,5 -3,9 0,4 1,7 3,9 2,3 5,4 9,4 3,0 6,-1 8,-3 2,-2 3,-4 3,-7l0 -1 -11 0 0 -3 16 0 0 17 -4 0 -1 -5z"/>
  <circle class="fil2 str0" cx="157" cy="59" r="13"/>
  <line class="fil2 str1" x1="170" y1="45" x2="170" y2= "74" />
  <line class="fil2 str2" x1="112" y1="3" x2="112" y2= "8" />
  <path class="fil2 str3" d="M179 57l0 -38c0,-8 -5,-14 -12,-14m12 54c0,-7 6,-12 13,-12 7,0 13,5 13,12 0,7 -6,13 -13,13 -7,0 -13,-6 -13,-13z"/>
  <path class="fil2 str0" d="M112 11l0 15 0 33c0,7 5,13 12,13 7,0 13,-6 13,-13"/>
  <polyline class="fil2 str4" points="5,53 31,74 58,54 31,55 31,6 4,47 24,47 "/>
 </g>
</svg>
